solid OpenSCAD_Model
  facet normal 0 0 -1
    outer loop
      vertex -3 0 15.5
      vertex -2.85317 0.927051 15.5
      vertex -2.85317 -0.927051 15.5
    endloop
  endfacet
  facet normal 0 0 -1
    outer loop
      vertex -2.85317 -0.927051 15.5
      vertex -2.85317 0.927051 15.5
      vertex -2.42705 1.76336 15.5
    endloop
  endfacet
  facet normal 0 0 -1
    outer loop
      vertex -2.85317 -0.927051 15.5
      vertex -2.42705 1.76336 15.5
      vertex -1.76336 2.42705 15.5
    endloop
  endfacet
  facet normal 0 0 -1
    outer loop
      vertex -2.85317 -0.927051 15.5
      vertex -1.76336 2.42705 15.5
      vertex -0.927051 2.85317 15.5
    endloop
  endfacet
  facet normal 0 0 -1
    outer loop
      vertex -2.85317 -0.927051 15.5
      vertex -0.927051 2.85317 15.5
      vertex 0 3 15.5
    endloop
  endfacet
  facet normal 0 0 -1
    outer loop
      vertex -2.85317 -0.927051 15.5
      vertex 0 3 15.5
      vertex 0.927051 2.85317 15.5
    endloop
  endfacet
  facet normal 0 0 -1
    outer loop
      vertex -2.85317 -0.927051 15.5
      vertex 0.927051 2.85317 15.5
      vertex 1.76336 2.42705 15.5
    endloop
  endfacet
  facet normal 0 0 -1
    outer loop
      vertex -0.154508 0.475528 15.5
      vertex 1.76336 2.42705 15.5
      vertex 2.42705 1.76336 15.5
    endloop
  endfacet
  facet normal 0 0 -1
    outer loop
      vertex 0.404508 0.293893 15.5
      vertex 2.42705 1.76336 15.5
      vertex 2.85317 0.927051 15.5
    endloop
  endfacet
  facet normal 0 0 -1
    outer loop
      vertex 0.475528 -0.154508 15.5
      vertex 2.85317 0.927051 15.5
      vertex 3 0 15.5
    endloop
  endfacet
  facet normal 0 0 -1
    outer loop
      vertex 0.154508 -0.475528 15.5
      vertex 3 0 15.5
      vertex 2.85317 -0.927051 15.5
    endloop
  endfacet
  facet normal 0 0 -1
    outer loop
      vertex -2.85317 -0.927051 15.5
      vertex 2.85317 -0.927051 15.5
      vertex 2.42705 -1.76336 15.5
    endloop
  endfacet
  facet normal 0 0 -1
    outer loop
      vertex -2.85317 -0.927051 15.5
      vertex 2.42705 -1.76336 15.5
      vertex 1.76336 -2.42705 15.5
    endloop
  endfacet
  facet normal 0 0 -1
    outer loop
      vertex -2.85317 -0.927051 15.5
      vertex 1.76336 -2.42705 15.5
      vertex 0.927051 -2.85317 15.5
    endloop
  endfacet
  facet normal 0 0 -1
    outer loop
      vertex -2.85317 -0.927051 15.5
      vertex 0.927051 -2.85317 15.5
      vertex 0 -3 15.5
    endloop
  endfacet
  facet normal 0 0 -1
    outer loop
      vertex -2.85317 -0.927051 15.5
      vertex 0 -3 15.5
      vertex -0.927051 -2.85317 15.5
    endloop
  endfacet
  facet normal 0 0 -1
    outer loop
      vertex -2.85317 -0.927051 15.5
      vertex -0.927051 -2.85317 15.5
      vertex -1.76336 -2.42705 15.5
    endloop
  endfacet
  facet normal 0 0 -1
    outer loop
      vertex -2.85317 -0.927051 15.5
      vertex -1.76336 -2.42705 15.5
      vertex -2.42705 -1.76336 15.5
    endloop
  endfacet
  facet normal 0 0 -1
    outer loop
      vertex -0.154508 0.475528 15.5
      vertex 2.42705 1.76336 15.5
      vertex 0 0.5 15.5
    endloop
  endfacet
  facet normal 0 0 -1
    outer loop
      vertex -2.85317 -0.927051 15.5
      vertex -0.5 0 15.5
      vertex -0.475528 -0.154508 15.5
    endloop
  endfacet
  facet normal 0 0 -1
    outer loop
      vertex 0.404508 0.293893 15.5
      vertex 2.85317 0.927051 15.5
      vertex 0.475528 0.154508 15.5
    endloop
  endfacet
  facet normal 0 0 -1
    outer loop
      vertex -2.85317 -0.927051 15.5
      vertex -0.404508 -0.293893 15.5
      vertex -0.293893 -0.404508 15.5
    endloop
  endfacet
  facet normal 0 0 -1
    outer loop
      vertex -2.85317 -0.927051 15.5
      vertex -0.293893 -0.404508 15.5
      vertex -0.154508 -0.475528 15.5
    endloop
  endfacet
  facet normal 0 0 -1
    outer loop
      vertex 0.293893 -0.404508 15.5
      vertex 3 0 15.5
      vertex 0.154508 -0.475528 15.5
    endloop
  endfacet
  facet normal 0 0 -1
    outer loop
      vertex -2.85317 -0.927051 15.5
      vertex 0 -0.5 15.5
      vertex 2.85317 -0.927051 15.5
    endloop
  endfacet
  facet normal 0 0 -1
    outer loop
      vertex 0 -0.5 15.5
      vertex 0.154508 -0.475528 15.5
      vertex 2.85317 -0.927051 15.5
    endloop
  endfacet
  facet normal 0 0 -1
    outer loop
      vertex 0.404508 -0.293893 15.5
      vertex 3 0 15.5
      vertex 0.293893 -0.404508 15.5
    endloop
  endfacet
  facet normal 0 0 -1
    outer loop
      vertex 0.475528 -0.154508 15.5
      vertex 3 0 15.5
      vertex 0.404508 -0.293893 15.5
    endloop
  endfacet
  facet normal 0 0 -1
    outer loop
      vertex 0.5 0 15.5
      vertex 2.85317 0.927051 15.5
      vertex 0.475528 -0.154508 15.5
    endloop
  endfacet
  facet normal 0 0 -1
    outer loop
      vertex 0.475528 0.154508 15.5
      vertex 2.85317 0.927051 15.5
      vertex 0.5 0 15.5
    endloop
  endfacet
  facet normal 0 0 -1
    outer loop
      vertex 0 -0.5 15.5
      vertex -2.85317 -0.927051 15.5
      vertex -0.154508 -0.475528 15.5
    endloop
  endfacet
  facet normal 0 0 -1
    outer loop
      vertex 0.293893 0.404508 15.5
      vertex 2.42705 1.76336 15.5
      vertex 0.404508 0.293893 15.5
    endloop
  endfacet
  facet normal 0 0 -1
    outer loop
      vertex 0.154508 0.475528 15.5
      vertex 2.42705 1.76336 15.5
      vertex 0.293893 0.404508 15.5
    endloop
  endfacet
  facet normal 0 0 -1
    outer loop
      vertex 0 0.5 15.5
      vertex 2.42705 1.76336 15.5
      vertex 0.154508 0.475528 15.5
    endloop
  endfacet
  facet normal 0 0 -1
    outer loop
      vertex -0.293893 0.404508 15.5
      vertex 1.76336 2.42705 15.5
      vertex -0.154508 0.475528 15.5
    endloop
  endfacet
  facet normal 0 0 -1
    outer loop
      vertex -0.404508 0.293893 15.5
      vertex -2.85317 -0.927051 15.5
      vertex -0.293893 0.404508 15.5
    endloop
  endfacet
  facet normal 0 0 -1
    outer loop
      vertex -2.85317 -0.927051 15.5
      vertex 1.76336 2.42705 15.5
      vertex -0.293893 0.404508 15.5
    endloop
  endfacet
  facet normal 0 0 -1
    outer loop
      vertex -0.475528 0.154508 15.5
      vertex -2.85317 -0.927051 15.5
      vertex -0.404508 0.293893 15.5
    endloop
  endfacet
  facet normal 0 0 -1
    outer loop
      vertex -2.85317 -0.927051 15.5
      vertex -0.475528 0.154508 15.5
      vertex -0.5 0 15.5
    endloop
  endfacet
  facet normal 0 0 -1
    outer loop
      vertex -0.404508 -0.293893 15.5
      vertex -2.85317 -0.927051 15.5
      vertex -0.475528 -0.154508 15.5
    endloop
  endfacet
  facet normal -0.979234 0.155095 0.130564
    outer loop
      vertex -2.85317 0.927051 15.5
      vertex -3 0 15.5
      vertex -0.951057 0.309017 30.5
    endloop
  endfacet
  facet normal -0.979234 0.155094 0.130565
    outer loop
      vertex -0.951057 0.309017 30.5
      vertex -3 0 15.5
      vertex -1 0 30.5
    endloop
  endfacet
  facet normal -0.979234 -0.155095 0.130564
    outer loop
      vertex -1 0 30.5
      vertex -3 0 15.5
      vertex -2.85317 -0.927051 15.5
    endloop
  endfacet
  facet normal -0.979234 -0.155094 0.130564
    outer loop
      vertex -1 0 30.5
      vertex -2.85317 -0.927051 15.5
      vertex -0.951057 -0.309017 30.5
    endloop
  endfacet
  facet normal -0.883379 -0.450105 0.130564
    outer loop
      vertex -0.951057 -0.309017 30.5
      vertex -2.85317 -0.927051 15.5
      vertex -2.42705 -1.76336 15.5
    endloop
  endfacet
  facet normal -0.883379 -0.450106 0.130565
    outer loop
      vertex -0.951057 -0.309017 30.5
      vertex -2.42705 -1.76336 15.5
      vertex -0.809017 -0.587785 30.5
    endloop
  endfacet
  facet normal -0.701054 -0.701054 0.130564
    outer loop
      vertex -0.809017 -0.587785 30.5
      vertex -2.42705 -1.76336 15.5
      vertex -1.76336 -2.42705 15.5
    endloop
  endfacet
  facet normal -0.701054 -0.701054 0.130564
    outer loop
      vertex -0.587785 -0.809017 30.5
      vertex -0.809017 -0.587785 30.5
      vertex -1.76336 -2.42705 15.5
    endloop
  endfacet
  facet normal -0.450105 -0.883379 0.130564
    outer loop
      vertex -0.587785 -0.809017 30.5
      vertex -1.76336 -2.42705 15.5
      vertex -0.927051 -2.85317 15.5
    endloop
  endfacet
  facet normal -0.450106 -0.883379 0.130564
    outer loop
      vertex -0.587785 -0.809017 30.5
      vertex -0.927051 -2.85317 15.5
      vertex -0.309017 -0.951057 30.5
    endloop
  endfacet
  facet normal -0.155095 -0.979234 0.130564
    outer loop
      vertex -0.309017 -0.951057 30.5
      vertex -0.927051 -2.85317 15.5
      vertex 0 -3 15.5
    endloop
  endfacet
  facet normal -0.155094 -0.979234 0.130565
    outer loop
      vertex 0 -1 30.5
      vertex -0.309017 -0.951057 30.5
      vertex 0 -3 15.5
    endloop
  endfacet
  facet normal 0.155095 -0.979234 0.130564
    outer loop
      vertex 0 -1 30.5
      vertex 0 -3 15.5
      vertex 0.927051 -2.85317 15.5
    endloop
  endfacet
  facet normal 0.155094 -0.979234 0.130564
    outer loop
      vertex 0.309017 -0.951057 30.5
      vertex 0 -1 30.5
      vertex 0.927051 -2.85317 15.5
    endloop
  endfacet
  facet normal 0.450105 -0.883379 0.130564
    outer loop
      vertex 1.76336 -2.42705 15.5
      vertex 0.309017 -0.951057 30.5
      vertex 0.927051 -2.85317 15.5
    endloop
  endfacet
  facet normal 0.450106 -0.883379 0.130565
    outer loop
      vertex 0.587785 -0.809017 30.5
      vertex 0.309017 -0.951057 30.5
      vertex 1.76336 -2.42705 15.5
    endloop
  endfacet
  facet normal 0.701054 -0.701054 0.130564
    outer loop
      vertex 0.809017 -0.587785 30.5
      vertex 0.587785 -0.809017 30.5
      vertex 1.76336 -2.42705 15.5
    endloop
  endfacet
  facet normal 0.701054 -0.701054 0.130564
    outer loop
      vertex 2.42705 -1.76336 15.5
      vertex 0.809017 -0.587785 30.5
      vertex 1.76336 -2.42705 15.5
    endloop
  endfacet
  facet normal 0.883379 -0.450105 0.130564
    outer loop
      vertex 2.85317 -0.927051 15.5
      vertex 0.809017 -0.587785 30.5
      vertex 2.42705 -1.76336 15.5
    endloop
  endfacet
  facet normal 0.883379 -0.450106 0.130564
    outer loop
      vertex 0.951057 -0.309017 30.5
      vertex 0.809017 -0.587785 30.5
      vertex 2.85317 -0.927051 15.5
    endloop
  endfacet
  facet normal 0.979234 -0.155095 0.130564
    outer loop
      vertex 3 0 15.5
      vertex 0.951057 -0.309017 30.5
      vertex 2.85317 -0.927051 15.5
    endloop
  endfacet
  facet normal 0.979234 -0.155094 0.130565
    outer loop
      vertex 1 0 30.5
      vertex 0.951057 -0.309017 30.5
      vertex 3 0 15.5
    endloop
  endfacet
  facet normal 0.979234 0.155095 0.130564
    outer loop
      vertex 2.85317 0.927051 15.5
      vertex 1 0 30.5
      vertex 3 0 15.5
    endloop
  endfacet
  facet normal 0.979234 0.155094 0.130564
    outer loop
      vertex 2.85317 0.927051 15.5
      vertex 0.951057 0.309017 30.5
      vertex 1 0 30.5
    endloop
  endfacet
  facet normal 0.883379 0.450105 0.130564
    outer loop
      vertex 2.42705 1.76336 15.5
      vertex 0.951057 0.309017 30.5
      vertex 2.85317 0.927051 15.5
    endloop
  endfacet
  facet normal 0.883379 0.450106 0.130565
    outer loop
      vertex 2.42705 1.76336 15.5
      vertex 0.809017 0.587785 30.5
      vertex 0.951057 0.309017 30.5
    endloop
  endfacet
  facet normal 0.701054 0.701054 0.130564
    outer loop
      vertex 0.587785 0.809017 30.5
      vertex 0.809017 0.587785 30.5
      vertex 1.76336 2.42705 15.5
    endloop
  endfacet
  facet normal 0.701054 0.701054 0.130564
    outer loop
      vertex 1.76336 2.42705 15.5
      vertex 0.809017 0.587785 30.5
      vertex 2.42705 1.76336 15.5
    endloop
  endfacet
  facet normal 0.450105 0.883379 0.130564
    outer loop
      vertex 0.927051 2.85317 15.5
      vertex 0.587785 0.809017 30.5
      vertex 1.76336 2.42705 15.5
    endloop
  endfacet
  facet normal 0.450106 0.883379 0.130564
    outer loop
      vertex 0.927051 2.85317 15.5
      vertex 0.309017 0.951057 30.5
      vertex 0.587785 0.809017 30.5
    endloop
  endfacet
  facet normal 0.155095 0.979234 0.130564
    outer loop
      vertex 0.927051 2.85317 15.5
      vertex 0 3 15.5
      vertex 0.309017 0.951057 30.5
    endloop
  endfacet
  facet normal 0.155094 0.979234 0.130565
    outer loop
      vertex 0 3 15.5
      vertex 0 1 30.5
      vertex 0.309017 0.951057 30.5
    endloop
  endfacet
  facet normal -0.155095 0.979234 0.130564
    outer loop
      vertex 0 3 15.5
      vertex -0.927051 2.85317 15.5
      vertex 0 1 30.5
    endloop
  endfacet
  facet normal -0.155094 0.979234 0.130564
    outer loop
      vertex 0 1 30.5
      vertex -0.927051 2.85317 15.5
      vertex -0.309017 0.951057 30.5
    endloop
  endfacet
  facet normal -0.450105 0.883379 0.130564
    outer loop
      vertex -0.927051 2.85317 15.5
      vertex -1.76336 2.42705 15.5
      vertex -0.309017 0.951057 30.5
    endloop
  endfacet
  facet normal -0.450106 0.883379 0.130565
    outer loop
      vertex -0.309017 0.951057 30.5
      vertex -1.76336 2.42705 15.5
      vertex -0.587785 0.809017 30.5
    endloop
  endfacet
  facet normal -0.701054 0.701054 0.130564
    outer loop
      vertex -2.42705 1.76336 15.5
      vertex -0.809017 0.587785 30.5
      vertex -1.76336 2.42705 15.5
    endloop
  endfacet
  facet normal -0.701054 0.701054 0.130564
    outer loop
      vertex -1.76336 2.42705 15.5
      vertex -0.809017 0.587785 30.5
      vertex -0.587785 0.809017 30.5
    endloop
  endfacet
  facet normal -0.883379 0.450105 0.130564
    outer loop
      vertex -2.42705 1.76336 15.5
      vertex -2.85317 0.927051 15.5
      vertex -0.809017 0.587785 30.5
    endloop
  endfacet
  facet normal -0.883379 0.450106 0.130564
    outer loop
      vertex -0.809017 0.587785 30.5
      vertex -2.85317 0.927051 15.5
      vertex -0.951057 0.309017 30.5
    endloop
  endfacet
  facet normal -0.987688 0.156437 0
    outer loop
      vertex -0.5 0 0
      vertex -0.5 0 15.5
      vertex -0.475528 0.154508 0
    endloop
  endfacet
  facet normal -0.987688 0.156437 0
    outer loop
      vertex -0.475528 0.154508 0
      vertex -0.5 0 15.5
      vertex -0.475528 0.154508 15.5
    endloop
  endfacet
  facet normal -0.987688 -0.156437 0
    outer loop
      vertex -0.5 0 0
      vertex -0.475528 -0.154508 0
      vertex -0.5 0 15.5
    endloop
  endfacet
  facet normal -0.987688 -0.156437 0
    outer loop
      vertex -0.5 0 15.5
      vertex -0.475528 -0.154508 0
      vertex -0.475528 -0.154508 15.5
    endloop
  endfacet
  facet normal -0.891007 0.453989 0
    outer loop
      vertex -0.475528 0.154508 0
      vertex -0.475528 0.154508 15.5
      vertex -0.404508 0.293893 0
    endloop
  endfacet
  facet normal -0.891007 0.453989 0
    outer loop
      vertex -0.404508 0.293893 0
      vertex -0.475528 0.154508 15.5
      vertex -0.404508 0.293893 15.5
    endloop
  endfacet
  facet normal -0.707107 0.707107 0
    outer loop
      vertex -0.404508 0.293893 0
      vertex -0.404508 0.293893 15.5
      vertex -0.293893 0.404508 0
    endloop
  endfacet
  facet normal -0.707107 0.707107 0
    outer loop
      vertex -0.293893 0.404508 0
      vertex -0.404508 0.293893 15.5
      vertex -0.293893 0.404508 15.5
    endloop
  endfacet
  facet normal -0.453989 0.891007 0
    outer loop
      vertex -0.293893 0.404508 0
      vertex -0.293893 0.404508 15.5
      vertex -0.154508 0.475528 0
    endloop
  endfacet
  facet normal -0.453989 0.891007 0
    outer loop
      vertex -0.154508 0.475528 0
      vertex -0.293893 0.404508 15.5
      vertex -0.154508 0.475528 15.5
    endloop
  endfacet
  facet normal -0.156437 0.987688 0
    outer loop
      vertex -0.154508 0.475528 0
      vertex -0.154508 0.475528 15.5
      vertex 0 0.5 0
    endloop
  endfacet
  facet normal -0.156437 0.987688 0
    outer loop
      vertex 0 0.5 0
      vertex -0.154508 0.475528 15.5
      vertex 0 0.5 15.5
    endloop
  endfacet
  facet normal 0.156437 0.987688 0
    outer loop
      vertex 0 0.5 0
      vertex 0 0.5 15.5
      vertex 0.154508 0.475528 0
    endloop
  endfacet
  facet normal 0.156437 0.987688 0
    outer loop
      vertex 0.154508 0.475528 0
      vertex 0 0.5 15.5
      vertex 0.154508 0.475528 15.5
    endloop
  endfacet
  facet normal 0.453989 0.891007 0
    outer loop
      vertex 0.154508 0.475528 0
      vertex 0.154508 0.475528 15.5
      vertex 0.293893 0.404508 0
    endloop
  endfacet
  facet normal 0.453989 0.891007 0
    outer loop
      vertex 0.293893 0.404508 0
      vertex 0.154508 0.475528 15.5
      vertex 0.293893 0.404508 15.5
    endloop
  endfacet
  facet normal 0.707107 0.707107 0
    outer loop
      vertex 0.293893 0.404508 0
      vertex 0.293893 0.404508 15.5
      vertex 0.404508 0.293893 0
    endloop
  endfacet
  facet normal 0.707107 0.707107 0
    outer loop
      vertex 0.404508 0.293893 0
      vertex 0.293893 0.404508 15.5
      vertex 0.404508 0.293893 15.5
    endloop
  endfacet
  facet normal 0.891007 0.453989 0
    outer loop
      vertex 0.475528 0.154508 0
      vertex 0.404508 0.293893 0
      vertex 0.404508 0.293893 15.5
    endloop
  endfacet
  facet normal 0.891007 0.453989 0
    outer loop
      vertex 0.475528 0.154508 15.5
      vertex 0.475528 0.154508 0
      vertex 0.404508 0.293893 15.5
    endloop
  endfacet
  facet normal 0.987688 0.156437 0
    outer loop
      vertex 0.5 0 0
      vertex 0.475528 0.154508 0
      vertex 0.475528 0.154508 15.5
    endloop
  endfacet
  facet normal 0.987688 0.156437 0
    outer loop
      vertex 0.5 0 15.5
      vertex 0.5 0 0
      vertex 0.475528 0.154508 15.5
    endloop
  endfacet
  facet normal 0.987688 -0.156437 0
    outer loop
      vertex 0.475528 -0.154508 15.5
      vertex 0.475528 -0.154508 0
      vertex 0.5 0 0
    endloop
  endfacet
  facet normal 0.987688 -0.156437 0
    outer loop
      vertex 0.5 0 15.5
      vertex 0.475528 -0.154508 15.5
      vertex 0.5 0 0
    endloop
  endfacet
  facet normal 0.891007 -0.453989 0
    outer loop
      vertex 0.404508 -0.293893 15.5
      vertex 0.404508 -0.293893 0
      vertex 0.475528 -0.154508 0
    endloop
  endfacet
  facet normal 0.891007 -0.453989 0
    outer loop
      vertex 0.475528 -0.154508 15.5
      vertex 0.404508 -0.293893 15.5
      vertex 0.475528 -0.154508 0
    endloop
  endfacet
  facet normal 0.707107 -0.707107 0
    outer loop
      vertex 0.293893 -0.404508 15.5
      vertex 0.293893 -0.404508 0
      vertex 0.404508 -0.293893 0
    endloop
  endfacet
  facet normal 0.707107 -0.707107 0
    outer loop
      vertex 0.404508 -0.293893 15.5
      vertex 0.293893 -0.404508 15.5
      vertex 0.404508 -0.293893 0
    endloop
  endfacet
  facet normal 0.453989 -0.891007 0
    outer loop
      vertex 0.154508 -0.475528 15.5
      vertex 0.154508 -0.475528 0
      vertex 0.293893 -0.404508 0
    endloop
  endfacet
  facet normal 0.453989 -0.891007 0
    outer loop
      vertex 0.293893 -0.404508 15.5
      vertex 0.154508 -0.475528 15.5
      vertex 0.293893 -0.404508 0
    endloop
  endfacet
  facet normal 0.156437 -0.987688 0
    outer loop
      vertex 0 -0.5 15.5
      vertex 0 -0.5 0
      vertex 0.154508 -0.475528 0
    endloop
  endfacet
  facet normal 0.156437 -0.987688 0
    outer loop
      vertex 0.154508 -0.475528 15.5
      vertex 0 -0.5 15.5
      vertex 0.154508 -0.475528 0
    endloop
  endfacet
  facet normal -0.156437 -0.987688 0
    outer loop
      vertex -0.154508 -0.475528 15.5
      vertex -0.154508 -0.475528 0
      vertex 0 -0.5 0
    endloop
  endfacet
  facet normal -0.156437 -0.987688 0
    outer loop
      vertex 0 -0.5 15.5
      vertex -0.154508 -0.475528 15.5
      vertex 0 -0.5 0
    endloop
  endfacet
  facet normal -0.453989 -0.891007 0
    outer loop
      vertex -0.293893 -0.404508 15.5
      vertex -0.293893 -0.404508 0
      vertex -0.154508 -0.475528 0
    endloop
  endfacet
  facet normal -0.453989 -0.891007 0
    outer loop
      vertex -0.154508 -0.475528 15.5
      vertex -0.293893 -0.404508 15.5
      vertex -0.154508 -0.475528 0
    endloop
  endfacet
  facet normal -0.707107 -0.707107 0
    outer loop
      vertex -0.404508 -0.293893 15.5
      vertex -0.404508 -0.293893 0
      vertex -0.293893 -0.404508 0
    endloop
  endfacet
  facet normal -0.707107 -0.707107 0
    outer loop
      vertex -0.293893 -0.404508 15.5
      vertex -0.404508 -0.293893 15.5
      vertex -0.293893 -0.404508 0
    endloop
  endfacet
  facet normal -0.891007 -0.453989 0
    outer loop
      vertex -0.475528 -0.154508 0
      vertex -0.404508 -0.293893 0
      vertex -0.475528 -0.154508 15.5
    endloop
  endfacet
  facet normal -0.891007 -0.453989 0
    outer loop
      vertex -0.475528 -0.154508 15.5
      vertex -0.404508 -0.293893 0
      vertex -0.404508 -0.293893 15.5
    endloop
  endfacet
  facet normal 0 0 1
    outer loop
      vertex -0.951057 0.309017 30.5
      vertex -1 0 30.5
      vertex -0.951057 -0.309017 30.5
    endloop
  endfacet
  facet normal 0 0 1
    outer loop
      vertex -0.587785 -0.809017 30.5
      vertex -0.951057 0.309017 30.5
      vertex -0.809017 -0.587785 30.5
    endloop
  endfacet
  facet normal 0 0 1
    outer loop
      vertex -0.809017 -0.587785 30.5
      vertex -0.951057 0.309017 30.5
      vertex -0.951057 -0.309017 30.5
    endloop
  endfacet
  facet normal 0 0 1
    outer loop
      vertex -0.309017 -0.951057 30.5
      vertex -0.951057 0.309017 30.5
      vertex -0.587785 -0.809017 30.5
    endloop
  endfacet
  facet normal 0 0 1
    outer loop
      vertex 0 -1 30.5
      vertex -0.951057 0.309017 30.5
      vertex -0.309017 -0.951057 30.5
    endloop
  endfacet
  facet normal 0 0 1
    outer loop
      vertex 0.309017 -0.951057 30.5
      vertex -0.951057 0.309017 30.5
      vertex 0 -1 30.5
    endloop
  endfacet
  facet normal 0 0 1
    outer loop
      vertex 0.587785 -0.809017 30.5
      vertex -0.951057 0.309017 30.5
      vertex 0.309017 -0.951057 30.5
    endloop
  endfacet
  facet normal 0 0 1
    outer loop
      vertex 0.809017 -0.587785 30.5
      vertex -0.951057 0.309017 30.5
      vertex 0.587785 -0.809017 30.5
    endloop
  endfacet
  facet normal 0 0 1
    outer loop
      vertex 0.951057 -0.309017 30.5
      vertex -0.951057 0.309017 30.5
      vertex 0.809017 -0.587785 30.5
    endloop
  endfacet
  facet normal 0 0 1
    outer loop
      vertex 1 0 30.5
      vertex -0.951057 0.309017 30.5
      vertex 0.951057 -0.309017 30.5
    endloop
  endfacet
  facet normal 0 0 1
    outer loop
      vertex 0.951057 0.309017 30.5
      vertex -0.951057 0.309017 30.5
      vertex 1 0 30.5
    endloop
  endfacet
  facet normal 0 0 1
    outer loop
      vertex 0.809017 0.587785 30.5
      vertex -0.951057 0.309017 30.5
      vertex 0.951057 0.309017 30.5
    endloop
  endfacet
  facet normal 0 0 1
    outer loop
      vertex 0.587785 0.809017 30.5
      vertex -0.951057 0.309017 30.5
      vertex 0.809017 0.587785 30.5
    endloop
  endfacet
  facet normal 0 0 1
    outer loop
      vertex 0.309017 0.951057 30.5
      vertex -0.951057 0.309017 30.5
      vertex 0.587785 0.809017 30.5
    endloop
  endfacet
  facet normal 0 0 1
    outer loop
      vertex 0 1 30.5
      vertex -0.951057 0.309017 30.5
      vertex 0.309017 0.951057 30.5
    endloop
  endfacet
  facet normal 0 0 1
    outer loop
      vertex -0.309017 0.951057 30.5
      vertex -0.951057 0.309017 30.5
      vertex 0 1 30.5
    endloop
  endfacet
  facet normal 0 0 1
    outer loop
      vertex -0.587785 0.809017 30.5
      vertex -0.951057 0.309017 30.5
      vertex -0.309017 0.951057 30.5
    endloop
  endfacet
  facet normal 0 0 1
    outer loop
      vertex -0.809017 0.587785 30.5
      vertex -0.951057 0.309017 30.5
      vertex -0.587785 0.809017 30.5
    endloop
  endfacet
  facet normal 0 0 -1
    outer loop
      vertex -0.5 0 0
      vertex -0.475528 0.154508 0
      vertex -0.475528 -0.154508 0
    endloop
  endfacet
  facet normal 0 0 -1
    outer loop
      vertex -0.475528 -0.154508 0
      vertex -0.475528 0.154508 0
      vertex -0.404508 0.293893 0
    endloop
  endfacet
  facet normal 0 0 -1
    outer loop
      vertex -0.475528 -0.154508 0
      vertex -0.404508 0.293893 0
      vertex -0.293893 0.404508 0
    endloop
  endfacet
  facet normal 0 0 -1
    outer loop
      vertex -0.475528 -0.154508 0
      vertex -0.293893 0.404508 0
      vertex -0.154508 0.475528 0
    endloop
  endfacet
  facet normal 0 0 -1
    outer loop
      vertex -0.475528 -0.154508 0
      vertex -0.154508 0.475528 0
      vertex 0 0.5 0
    endloop
  endfacet
  facet normal 0 0 -1
    outer loop
      vertex -0.475528 -0.154508 0
      vertex 0 0.5 0
      vertex 0.154508 0.475528 0
    endloop
  endfacet
  facet normal 0 0 -1
    outer loop
      vertex -0.475528 -0.154508 0
      vertex 0.154508 0.475528 0
      vertex 0.293893 0.404508 0
    endloop
  endfacet
  facet normal 0 0 -1
    outer loop
      vertex -0.475528 -0.154508 0
      vertex 0.293893 0.404508 0
      vertex 0.404508 0.293893 0
    endloop
  endfacet
  facet normal 0 0 -1
    outer loop
      vertex -0.475528 -0.154508 0
      vertex 0.404508 0.293893 0
      vertex 0.475528 0.154508 0
    endloop
  endfacet
  facet normal 0 0 -1
    outer loop
      vertex -0.475528 -0.154508 0
      vertex 0.475528 0.154508 0
      vertex 0.5 0 0
    endloop
  endfacet
  facet normal 0 0 -1
    outer loop
      vertex -0.475528 -0.154508 0
      vertex 0.5 0 0
      vertex 0.475528 -0.154508 0
    endloop
  endfacet
  facet normal 0 0 -1
    outer loop
      vertex -0.475528 -0.154508 0
      vertex 0.475528 -0.154508 0
      vertex 0.404508 -0.293893 0
    endloop
  endfacet
  facet normal 0 0 -1
    outer loop
      vertex -0.475528 -0.154508 0
      vertex 0.404508 -0.293893 0
      vertex 0.293893 -0.404508 0
    endloop
  endfacet
  facet normal 0 0 -1
    outer loop
      vertex -0.475528 -0.154508 0
      vertex 0.293893 -0.404508 0
      vertex 0.154508 -0.475528 0
    endloop
  endfacet
  facet normal 0 0 -1
    outer loop
      vertex -0.475528 -0.154508 0
      vertex 0.154508 -0.475528 0
      vertex 0 -0.5 0
    endloop
  endfacet
  facet normal 0 0 -1
    outer loop
      vertex -0.475528 -0.154508 0
      vertex 0 -0.5 0
      vertex -0.154508 -0.475528 0
    endloop
  endfacet
  facet normal 0 0 -1
    outer loop
      vertex -0.475528 -0.154508 0
      vertex -0.154508 -0.475528 0
      vertex -0.293893 -0.404508 0
    endloop
  endfacet
  facet normal 0 0 -1
    outer loop
      vertex -0.475528 -0.154508 0
      vertex -0.293893 -0.404508 0
      vertex -0.404508 -0.293893 0
    endloop
  endfacet
endsolid OpenSCAD_Model
